<svg xmlns="http://www.w3.org/2000/svg" width="256" height="257" viewBox="0 0 256 257" preserveAspectRatio="xMidYMid meet">
  <defs>
    <!-- Gradiente para el iris del ojo -->
    <linearGradient id="eyeGradient" x1="0%" y1="0%" x2="100%" y2="100%">
      <stop offset="0%" style="stop-color:#880000"/>
      <stop offset="100%" style="stop-color:#ff0000"/>
    </linearGradient>
    <!-- Brillos del ojo -->
    <radialGradient id="eyeShine" cx="35%" cy="35%" r="25%">
      <stop offset="0%" style="stop-color:white;stop-opacity:0.9"/>
      <stop offset="100%" style="stop-color:white;stop-opacity:0"/>
    </radialGradient>
  </defs>
  
  <!-- Letra R principal -->
  <path 
    d="M50 30 L50 227 L90 227 L90 150 L130 150 L180 227 L230 227 L170 140
    C200 130 220 100 220 70 C220 40 195 30 160 30 Z
    M90 65 L160 65 C175 65 180 67 180 80 C180 93 175 95 160 95 L90 95 Z" 
    fill="#ff0000"
  />
  
  <!-- Ojo integrado en la R -->
  <g transform="translate(130, 80) scale(0.8)">
    <!-- Fondo blanco del ojo -->
    <ellipse 
      cx="0" cy="0" rx="40" ry="30" 
      fill="white" 
      stroke="#ff0000" 
      stroke-width="3"
    />
    
    <!-- Iris -->
    <circle 
      cx="0" cy="0" r="20" 
      fill="url(#eyeGradient)"
    />
    
    <!-- Pupila -->
    <circle 
      cx="0" cy="0" r="10" 
      fill="black"
    />
    
    <!-- Brillo del ojo -->
    <circle 
      cx="-5" cy="-5" r="5" 
      fill="url(#eyeShine)"
    />
    
    <!-- Detalles de pestañas -->
    <path 
      d="M-45 0 C-40 -20 40 -20 45 0" 
      fill="none" 
      stroke="#ff0000" 
      stroke-width="2"
    />
    <path 
      d="M-45 0 C-40 20 40 20 45 0" 
      fill="none" 
      stroke="#ff0000" 
      stroke-width="2"
    />
  </g>
</svg>